<?xml version="1.0" standalone="no"?>
<!DOCTYPE svg PUBLIC "-//W3C//DTD SVG 20010904//EN"
 "http://www.w3.org/TR/2001/REC-SVG-20010904/DTD/svg10.dtd">
<svg version="1.0" xmlns="http://www.w3.org/2000/svg"
 width="1024.000000pt" height="1024.000000pt" viewBox="0 0 1024.000000 1024.000000" fill="#8E293F"
 preserveAspectRatio="xMidYMid meet">

<g transform="translate(0.000000,1024.000000) scale(0.100000,-0.100000)" stroke="none">
<path d="M4752 9364 c-74 -7 -164 -18 -200 -24 -37 -6 -81 -13 -98 -15 -16 -3
-64 -12 -105 -20 -41 -9 -90 -19 -109 -21 -19 -3 -42 -8 -50 -11 -8 -4 -22 -7
-31 -8 -22 -3 -122 -26 -139 -32 -8 -3 -24 -8 -35 -10 -29 -5 -151 -42 -183
-55 -31 -13 -27 -12 -69 -22 -18 -4 -33 -11 -33 -15 0 -4 -10 -7 -22 -8 -11
-1 -24 -6 -27 -10 -3 -4 -15 -10 -26 -11 -32 -6 -216 -81 -274 -113 -30 -16
-61 -29 -68 -29 -7 0 -13 -5 -13 -12 0 -6 -3 -9 -6 -5 -5 5 -212 -98 -224
-112 -3 -3 -18 -13 -35 -21 -16 -8 -32 -17 -35 -20 -3 -3 -21 -14 -40 -24
-106 -59 -411 -272 -445 -310 -5 -7 -20 -19 -33 -28 -101 -69 -550 -517 -570
-569 -2 -4 -21 -27 -43 -51 -21 -24 -39 -46 -39 -49 0 -4 -13 -21 -30 -39 -16
-18 -30 -36 -30 -41 0 -4 -11 -20 -25 -35 -14 -15 -25 -30 -25 -35 0 -4 -13
-22 -30 -40 -16 -18 -28 -35 -26 -37 2 -2 -6 -14 -18 -27 -12 -13 -31 -42 -42
-64 -10 -23 -21 -41 -24 -41 -3 0 -17 -21 -30 -47 -14 -26 -31 -54 -37 -61 -7
-7 -16 -24 -19 -38 -3 -13 -10 -24 -14 -24 -7 0 -16 -22 -18 -44 0 -5 -5 -12
-10 -15 -15 -9 -131 -248 -125 -255 4 -3 2 -6 -4 -6 -10 0 -28 -46 -25 -62 1
-5 -2 -8 -7 -8 -4 0 -16 -21 -26 -47 -9 -27 -24 -63 -32 -82 -12 -27 -71 -192
-74 -211 -3 -10 -11 -36 -25 -72 -8 -21 -11 -38 -8 -38 4 0 2 -6 -5 -13 -9
-12 -68 -237 -75 -290 -2 -12 -6 -29 -9 -37 -12 -31 -35 -164 -32 -182 2 -10
0 -18 -4 -18 -7 0 -13 -40 -26 -200 -3 -25 -7 -67 -9 -95 -19 -188 -24 -435
-12 -630 8 -143 12 -185 35 -355 5 -41 12 -95 15 -120 3 -25 8 -56 12 -70 3
-14 8 -36 10 -50 2 -14 7 -36 10 -50 3 -14 8 -38 11 -55 5 -33 40 -171 50
-195 3 -8 7 -24 8 -35 2 -11 9 -33 16 -50 7 -16 13 -33 13 -37 1 -3 4 -10 8
-14 5 -4 8 -20 8 -36 0 -15 5 -28 10 -28 6 0 10 -13 10 -28 0 -15 5 -33 12
-40 7 -7 9 -12 5 -12 -24 0 234 -580 272 -610 3 -3 17 -27 30 -55 12 -27 35
-68 50 -90 14 -22 32 -52 40 -67 8 -16 18 -28 23 -28 4 0 8 -6 8 -13 0 -7 9
-23 20 -35 12 -12 18 -22 15 -22 -5 0 36 -61 77 -115 5 -5 27 -35 51 -66 23
-30 47 -62 54 -70 7 -8 38 -45 69 -84 68 -84 61 -76 219 -245 69 -74 158 -164
198 -198 39 -35 88 -78 107 -96 50 -47 166 -136 176 -136 5 0 15 -9 22 -20 7
-11 19 -20 27 -20 8 0 15 -5 15 -10 0 -6 7 -13 16 -17 9 -3 28 -17 42 -29 14
-13 31 -24 38 -24 7 0 14 -4 16 -8 4 -11 94 -72 106 -72 6 0 12 -4 14 -8 3 -8
171 -112 181 -112 4 0 23 -11 43 -25 20 -14 40 -23 44 -20 5 3 10 1 12 -3 5
-13 205 -112 212 -105 3 3 6 1 6 -6 0 -7 5 -9 10 -6 6 3 10 2 10 -2 0 -9 69
-39 83 -35 4 1 7 -2 7 -8 0 -5 8 -10 18 -10 10 0 23 -5 30 -12 7 -7 12 -8 12
-2 0 5 4 4 8 -2 9 -15 375 -144 407 -144 13 0 27 -5 30 -10 4 -6 15 -8 26 -5
10 4 19 2 19 -3 0 -5 6 -9 13 -10 6 0 32 -6 57 -13 25 -6 54 -13 65 -15 11 -2
59 -13 107 -23 48 -11 104 -22 125 -25 21 -3 81 -12 133 -21 52 -9 127 -17
166 -19 38 -1 75 -6 81 -9 19 -12 686 -9 717 3 16 6 36 8 45 6 9 -3 45 -1 81
5 36 5 85 12 110 14 59 6 281 45 300 52 8 3 26 8 40 10 14 2 32 6 40 10 8 3
21 7 29 9 41 8 124 30 191 51 8 2 16 4 17 4 6 -1 149 51 165 59 10 6 25 10 33
10 9 0 35 9 57 20 23 11 47 20 53 20 6 0 26 8 45 18 19 9 54 24 78 31 23 8 42
19 42 24 0 6 3 8 6 5 5 -6 214 88 224 100 3 4 11 8 19 10 24 5 281 155 281
164 0 4 5 8 10 8 13 0 164 100 168 112 2 4 9 8 16 8 7 0 27 14 44 30 18 17 35
30 40 30 4 0 22 14 40 30 18 17 35 30 38 30 36 0 410 352 592 556 91 103 222
269 222 283 0 6 4 11 8 11 9 0 105 145 124 185 6 14 14 25 18 25 7 0 35 55 28
55 -1 0 6 10 17 22 11 12 38 57 60 99 22 43 46 84 53 92 11 12 14 21 11 38 0
4 4 10 10 13 35 22 261 566 261 629 0 12 5 22 10 22 6 0 10 13 10 28 0 15 4
32 9 38 8 9 65 202 75 254 3 14 12 52 20 85 8 33 17 78 20 100 3 22 10 63 15
90 5 28 7 58 5 67 -1 10 1 20 7 23 5 4 9 34 9 68 0 34 4 78 10 97 20 71 33
436 21 615 -25 375 -35 466 -66 620 -35 172 -94 408 -105 419 -4 4 -6 14 -4
21 3 7 1 16 -5 20 -6 3 -11 16 -11 29 0 12 -3 26 -7 30 -4 3 -8 13 -9 21 -4
27 -47 150 -57 163 -5 6 -7 12 -4 12 6 0 -48 133 -71 176 -6 10 -27 58 -48
106 -20 48 -57 122 -81 164 -23 42 -43 80 -43 85 0 5 -4 9 -10 9 -5 0 -9 3 -8
8 3 12 -45 102 -55 102 -4 0 -5 5 -2 10 3 6 2 10 -3 10 -6 0 -12 10 -16 23 -3
13 -16 35 -30 50 -13 14 -21 28 -18 31 3 3 0 6 -6 6 -7 0 -12 7 -12 15 0 8 -5
15 -12 15 -6 0 -8 3 -5 6 11 11 -236 354 -254 354 -5 0 -9 5 -9 11 0 24 -264
310 -400 434 -136 124 -212 190 -224 194 -6 2 -15 10 -21 16 -14 16 -152 119
-250 185 -108 74 -116 79 -147 93 -16 6 -28 15 -28 19 0 4 -4 8 -9 8 -5 0 -38
18 -74 39 -35 22 -87 50 -113 62 -27 13 -50 27 -52 31 -2 4 -12 8 -23 8 -10 0
-19 5 -19 10 0 6 -6 10 -14 10 -7 0 -33 11 -57 24 -24 14 -75 36 -114 51 -38
15 -78 31 -88 36 -9 5 -43 19 -75 30 -31 11 -70 27 -87 34 -16 7 -43 17 -60
21 -16 4 -34 10 -40 14 -10 8 -132 45 -175 54 -14 3 -40 9 -57 15 -18 5 -33 7
-33 4 0 -3 -6 -1 -12 5 -7 5 -26 13 -43 16 -16 3 -43 8 -60 11 -16 4 -48 10
-70 15 -22 5 -56 12 -75 16 -19 3 -46 8 -60 10 -14 2 -59 11 -100 18 -241 45
-734 60 -1028 30z m892 -1107 c20 -12 46 -44 60 -72 l26 -50 2 -1963 c2 -1080
5 -1965 8 -1967 3 -2 32 22 66 53 33 31 86 80 119 107 33 28 79 69 103 93 24
23 46 42 50 42 4 0 38 29 76 65 38 36 71 65 73 65 5 0 150 126 195 169 15 14
44 40 65 57 104 86 281 240 307 266 38 40 158 96 226 106 65 9 159 -12 208
-46 16 -12 33 -22 36 -22 13 0 96 -96 96 -110 0 -6 5 -10 11 -10 5 0 8 -4 4
-9 -3 -5 2 -17 11 -25 8 -9 13 -16 11 -16 -3 0 1 -21 9 -47 18 -60 18 -150 -1
-202 -8 -22 -12 -41 -9 -41 10 0 -61 -97 -129 -175 -38 -44 -71 -85 -74 -92
-2 -6 -24 -33 -49 -59 -24 -27 -44 -51 -44 -55 0 -3 -20 -28 -45 -55 -25 -27
-45 -51 -45 -55 0 -3 -14 -22 -30 -40 -65 -72 -240 -287 -240 -294 0 -4 -8
-15 -18 -24 -34 -30 -262 -309 -262 -320 0 -6 -4 -11 -8 -11 -5 0 -45 -45 -88
-101 -43 -55 -96 -119 -116 -142 -21 -23 -40 -50 -44 -59 -3 -10 -9 -18 -13
-18 -5 0 -28 -26 -52 -57 -24 -32 -46 -60 -49 -63 -18 -16 -150 -180 -150
-186 0 -4 -8 -14 -18 -23 -10 -9 -52 -59 -92 -111 -41 -52 -80 -101 -87 -108
-8 -8 -26 -30 -41 -50 -15 -20 -42 -52 -59 -71 -18 -20 -33 -39 -33 -43 0 -4
-8 -15 -18 -25 -28 -27 -132 -159 -132 -167 0 -4 -10 -17 -22 -30 -13 -13 -39
-43 -58 -67 -102 -127 -160 -162 -262 -158 -42 2 -75 10 -103 26 -40 22 -121
100 -141 135 -5 9 -22 31 -39 50 -16 18 -42 49 -56 68 -15 19 -38 47 -52 62
-14 16 -30 34 -34 42 -4 7 -23 31 -41 52 -18 22 -67 82 -110 134 -42 52 -85
104 -94 115 -9 11 -70 85 -134 165 -65 80 -126 152 -136 161 -10 9 -18 19 -18
23 0 6 -179 226 -217 266 -7 8 -30 36 -50 63 -19 26 -40 47 -44 47 -5 0 -9 4
-9 10 0 11 -270 344 -301 372 -11 9 -19 20 -19 25 0 4 -18 28 -41 52 -22 25
-43 50 -47 57 -4 6 -28 36 -54 65 -26 30 -84 100 -129 157 -44 56 -85 102 -90
102 -5 0 -9 7 -9 15 0 7 -6 18 -13 22 -6 4 -31 33 -54 63 -23 30 -50 64 -60
75 -10 11 -41 48 -68 82 -28 35 -54 63 -58 63 -11 0 -67 122 -74 162 -12 72
-4 143 23 208 10 25 18 48 16 53 -1 4 3 7 8 7 6 0 10 7 10 15 0 8 4 15 8 15 5
0 14 10 21 23 7 12 33 38 59 57 26 19 49 38 52 41 3 3 29 14 59 24 49 16 150
17 211 2 34 -8 139 -69 175 -102 67 -61 160 -142 179 -155 11 -8 48 -41 81
-72 33 -32 63 -58 67 -58 4 0 18 -11 32 -25 14 -14 81 -72 148 -130 68 -58
141 -122 163 -143 22 -21 71 -65 110 -98 38 -32 76 -66 85 -75 39 -41 158
-139 169 -139 10 0 11 51 4 243 -9 261 -11 3606 -2 3647 12 55 43 112 78 140
l36 30 497 0 c496 -1 498 -1 532 -23z"/>
</g>
</svg>
